<?xml version="1.0" standalone="no"?>
<!DOCTYPE svg PUBLIC "-//W3C//DTD SVG 20010904//EN"
 "http://www.w3.org/TR/2001/REC-SVG-20010904/DTD/svg10.dtd">
<svg version="1.0" xmlns="http://www.w3.org/2000/svg"
 width="134.000000pt" height="134.000000pt" viewBox="0 0 134.000000 134.000000"
 preserveAspectRatio="xMidYMid meet">
<metadata>
Created by potrace 1.14, written by Peter Selinger 2001-2017
</metadata>
<g transform="translate(0.000000,134.000000) scale(0.100000,-0.100000)"
fill="#000000" stroke="none">
<path d="M560 1264 c0 -9 -9 -18 -20 -21 -18 -5 -25 -15 -21 -36 1 -5 -9 -8
-21 -7 -53 5 -68 0 -68 -20 0 -11 -7 -20 -15 -20 -11 0 -15 11 -15 40 0 36 -2
40 -25 40 -23 0 -25 -3 -25 -48 0 -55 -12 -72 -52 -72 -21 0 -28 5 -28 20 0
15 -7 20 -26 20 -21 0 -25 -4 -22 -22 2 -15 9 -22 21 -22 16 2 21 -7 18 -33
-1 -7 3 -13 9 -13 18 0 11 -17 -10 -23 -13 -3 -18 -11 -14 -20 3 -8 1 -18 -5
-22 -10 -5 -15 7 -12 28 0 4 -21 7 -48 7 -45 0 -48 -2 -48 -24 0 -18 6 -26 20
-28 17 -2 22 -10 22 -41 1 -21 -4 -46 -12 -55 -12 -16 -13 -15 -19 4 -8 28
-48 25 -52 -4 -3 -17 2 -22 21 -22 31 0 31 -27 0 -35 -38 -9 -29 -52 9 -46 5
0 8 -6 8 -14 0 -15 -35 -29 -61 -23 -9 2 -15 -7 -17 -23 -3 -23 0 -26 25 -24
47 3 53 -3 53 -61 l0 -54 -41 0 c-36 0 -40 -2 -37 -22 2 -15 10 -23 23 -24 79
-4 123 -34 49 -34 -30 0 -34 -3 -34 -25 0 -18 5 -25 20 -25 15 0 20 -7 20 -25
0 -35 -2 -39 -22 -42 -11 -2 -18 3 -18 12 0 23 -37 18 -43 -5 -3 -11 -11 -19
-18 -18 -8 2 -15 -7 -17 -19 -3 -18 1 -23 17 -23 14 0 21 6 21 20 0 15 7 20
25 20 15 0 25 -6 25 -14 0 -8 8 -17 18 -19 13 -4 11 -5 -5 -6 -16 -1 -23 -7
-23 -21 0 -11 3 -20 8 -21 4 0 41 -1 82 -2 62 -2 75 -5 78 -19 2 -13 -3 -18
-17 -18 -14 0 -21 -6 -21 -20 0 -18 11 -25 34 -21 5 1 4 -4 -2 -11 -20 -24 2
-37 58 -36 75 1 80 0 80 -16 0 -16 27 -29 41 -20 5 3 9 12 9 20 0 9 7 14 18
12 9 -2 17 -10 17 -18 0 -8 9 -17 21 -20 14 -3 21 -14 21 -32 2 -46 2 -47 23
-45 21 1 40 42 40 83 0 13 5 24 10 24 6 0 10 -7 10 -15 0 -8 8 -15 19 -15 10
0 21 -9 24 -21 7 -27 54 -24 49 3 -2 12 4 18 18 18 13 0 20 -7 20 -20 0 -13 7
-20 19 -20 10 0 21 -9 24 -19 3 -13 13 -19 26 -18 24 1 27 18 9 47 -9 15 -10
23 -2 28 6 4 14 14 17 22 4 12 6 11 6 -2 1 -10 7 -18 15 -18 7 0 16 -9 19 -21
6 -22 44 -23 39 -1 -1 7 9 17 23 22 14 5 25 16 25 25 0 15 12 18 60 17 59 -2
68 5 67 50 -2 26 -7 44 -15 44 -26 3 -29 4 -29 18 0 8 3 15 6 14 25 -2 41 4
41 17 0 8 8 15 19 15 18 0 50 28 43 37 -2 3 -1 7 1 10 3 2 8 -5 12 -16 4 -13
15 -21 29 -21 20 0 22 5 20 37 -3 52 -3 53 -11 52 -19 -3 -30 2 -30 14 0 8 14
14 35 15 20 2 39 5 44 8 16 10 8 34 -14 39 -20 5 -23 13 -23 50 0 29 4 45 12
45 17 0 29 28 32 73 1 34 -1 37 -24 37 -23 0 -24 2 -15 20 6 11 16 19 23 17 7
-1 14 15 17 43 3 25 8 44 13 43 20 -7 28 -1 25 20 -2 12 -10 22 -18 22 -8 0
-16 8 -18 18 -2 10 0 17 5 16 23 -4 33 3 33 26 0 18 -5 25 -19 25 -16 0 -20 8
-23 38 -2 30 -7 38 -25 40 -21 3 -23 -1 -23 -37 0 -34 -3 -41 -20 -41 -12 0
-17 5 -14 14 3 8 0 17 -6 21 -9 6 -9 9 0 15 7 5 10 16 6 25 -5 15 -15 17 -54
13 -50 -6 -72 -2 -72 13 0 5 18 9 40 9 35 0 40 3 40 23 0 20 -5 24 -35 25 -44
2 -56 8 -49 26 3 8 14 12 25 9 15 -4 19 0 19 20 0 16 -7 26 -20 30 -25 6 -27
35 -3 33 12 0 19 7 21 22 3 18 -1 22 -22 22 -19 0 -26 -5 -26 -19 0 -13 -8
-21 -22 -23 -13 -2 -23 -10 -23 -18 0 -8 -8 -16 -17 -18 -13 -2 -18 3 -18 17
0 16 -6 21 -25 21 -22 0 -25 -4 -25 -35 0 -24 -5 -35 -15 -35 -8 0 -15 6 -15
14 0 8 -10 16 -22 18 -13 2 -23 10 -23 18 0 8 -10 16 -22 18 -15 2 -23 10 -23
23 0 14 -7 19 -25 19 -18 0 -25 -5 -25 -20 0 -13 -7 -20 -19 -20 -10 0 -21 -8
-23 -18 -6 -23 -36 -25 -34 -3 1 9 -8 17 -21 19 -15 2 -23 10 -23 23 0 14 -7
19 -25 19 -16 0 -25 -6 -25 -16z m38 -46 c-6 -18 -28 -21 -28 -4 0 9 7 16 16
16 9 0 14 -5 12 -12z m172 -4 c0 -17 -22 -14 -28 4 -2 7 3 12 12 12 9 0 16 -7
16 -16z m170 -68 c0 -11 -19 -15 -25 -6 -3 5 1 10 9 10 9 0 16 -2 16 -4z
m-325 -26 c-3 -5 -16 -10 -28 -9 -20 1 -20 2 3 9 14 4 26 8 28 9 2 1 0 -3 -3
-9z m42 4 c-3 -3 -12 -4 -19 -1 -8 3 -5 6 6 6 11 1 17 -2 13 -5z m33 2 c0 -3
-4 -8 -10 -11 -5 -3 -10 -1 -10 4 0 6 5 11 10 11 6 0 10 -2 10 -4z m66 -14
c-10 -2 -22 0 -28 6 -6 6 0 7 19 4 21 -5 23 -7 9 -10z m-196 -6 c0 -2 -9 -6
-20 -9 -11 -3 -18 -1 -14 4 5 9 34 13 34 5z m-50 -10 c0 -2 -7 -7 -16 -10 -8
-3 -12 -2 -9 4 6 10 25 14 25 6z m380 -27 c17 -13 18 -17 5 -10 -33 17 -51 31
-40 31 6 0 21 -10 35 -21z m-421 7 c-2 -2 -15 -9 -29 -15 -24 -11 -24 -11 -6
3 16 13 49 24 35 12z m373 -44 c85 -41 148 -104 190 -190 30 -61 33 -74 33
-162 0 -83 -3 -103 -29 -157 -32 -71 -72 -115 -81 -91 -3 8 -7 28 -8 44 -2 25
-7 29 -35 32 -18 2 -40 -2 -48 -9 -10 -8 -14 -8 -14 0 0 14 -100 12 -101 -3
-1 -6 -2 -19 -2 -28 0 -9 -7 -16 -16 -16 -9 1 -22 -1 -30 -3 -8 -2 -17 4 -19
15 -2 11 0 16 7 12 7 -4 11 1 11 13 0 17 -6 21 -30 21 -17 0 -30 -5 -30 -12 0
-9 -3 -9 -12 0 -16 16 -70 16 -86 0 -9 -9 -12 -9 -12 0 0 7 -13 12 -30 12 -17
0 -30 -5 -30 -12 0 -10 -2 -10 -9 0 -5 8 -21 12 -37 10 -26 -3 -29 -7 -32 -45
-2 -25 1 -44 7 -44 45 -6 78 -4 89 5 9 6 16 6 20 0 8 -12 82 -13 82 -1 0 5 5
5 12 1 17 -11 88 -12 94 -2 3 4 13 4 22 0 20 -10 74 -8 91 3 7 4 16 4 20 -1 8
-12 74 -11 83 1 5 6 8 5 8 -4 0 -10 3 -11 14 -2 10 9 16 9 21 1 4 -6 5 -12 4
-14 -2 -1 -24 -17 -47 -36 -111 -85 -283 -103 -414 -43 -247 114 -309 418
-126 615 87 94 176 129 313 125 77 -3 99 -8 157 -35z m-432 14 c0 -2 -8 -10
-17 -17 -16 -13 -17 -12 -4 4 13 16 21 21 21 13z m557 -26 c18 -16 31 -30 27
-30 -3 0 -22 14 -41 30 -18 17 -31 30 -27 30 3 0 22 -13 41 -30z m-604 -15
c-3 -9 -8 -14 -10 -11 -3 3 -2 9 2 15 9 16 15 13 8 -4z m658 -42 c13 -16 12
-17 -3 -4 -10 7 -18 15 -18 17 0 8 8 3 21 -13z m-701 -6 c0 -2 -10 -12 -22
-23 l-23 -19 19 23 c18 21 26 27 26 19z m744 -53 c3 -8 2 -12 -4 -9 -6 3 -10
10 -10 16 0 14 7 11 14 -7z m-793 -17 c-10 -9 -11 -8 -5 6 3 10 9 15 12 12 3
-3 0 -11 -7 -18z m969 -32 c0 -15 -3 -16 -42 -18 -29 -2 -35 20 -6 26 42 8 48
7 48 -8z m-999 -32 c-12 -20 -14 -14 -5 12 4 9 9 14 11 11 3 -2 0 -13 -6 -23z
m-14 -45 c-3 -8 -6 -5 -6 6 -1 11 2 17 5 13 3 -3 4 -12 1 -19z m-10 -120 c-3
-7 -5 -2 -5 12 0 14 2 19 5 13 2 -7 2 -19 0 -25z m0 -40 c-3 -8 -6 -5 -6 6 -1
11 2 17 5 13 3 -3 4 -12 1 -19z m10 -40 c-3 -8 -6 -5 -6 6 -1 11 2 17 5 13 3
-3 4 -12 1 -19z m864 -71 c-10 -9 -11 -8 -5 6 3 10 9 15 12 12 3 -3 0 -11 -7
-18z m-806 -53 c9 -15 12 -23 6 -20 -11 7 -35 46 -28 46 3 0 12 -12 22 -26z
m-85 -20 c0 -8 5 -12 10 -9 12 7 13 -15 2 -30 -18 -24 -33 -15 -30 20 2 34 18
51 18 19z m130 -44 c12 -16 19 -30 16 -30 -2 0 -14 14 -26 30 -12 17 -19 30
-16 30 2 0 14 -13 26 -30z m647 -36 c-32 -30 -63 -54 -69 -54 -6 0 7 13 29 29
22 16 50 42 64 58 13 17 26 28 29 26 3 -3 -21 -29 -53 -59z m-803 19 c6 -15
-8 -32 -26 -33 -6 0 -5 25 1 48 3 9 20 -1 25 -15z m256 -70 c0 -7 -58 36 -66
49 -4 7 9 -1 29 -16 20 -16 37 -30 37 -33z m40 -13 c8 -5 11 -10 5 -10 -5 0
-17 5 -25 10 -8 5 -10 10 -5 10 6 0 17 -5 25 -10z m420 5 c0 -2 -10 -9 -22
-15 -22 -11 -22 -10 -4 4 21 17 26 19 26 11z m-314 -37 c4 4 4 2 0 -5 -7 -12
-60 0 -81 19 -5 5 9 2 32 -6 23 -8 45 -11 49 -8z m250 7 c-11 -8 -25 -15 -30
-15 -6 1 0 7 14 15 32 19 40 18 16 0z m-527 -18 c6 -8 8 -16 5 -20 -10 -9 -34
4 -34 19 0 18 14 18 29 1z m347 -10 c3 -3 -6 -4 -22 -1 -37 7 -47 16 -12 12
15 -2 30 -7 34 -11z m44 -1 c-7 -7 -13 -7 -20 0 -6 6 -3 10 10 10 13 0 16 -4
10 -10z m60 10 c0 -2 -9 -6 -20 -9 -11 -3 -20 -1 -20 4 0 5 9 9 20 9 11 0 20
-2 20 -4z m-322 -48 c-6 -18 -25 -20 -31 -3 -5 10 0 15 14 15 12 0 19 -5 17
-12z"/>
<path d="M387 918 c-11 -7 -15 -353 -4 -364 6 -6 49 -7 176 -5 30 1 51 4 48 7
-9 9 12 46 23 39 18 -11 26 27 21 95 -1 6 -9 10 -18 8 -14 -2 -19 5 -21 39 -3
35 0 41 15 39 12 -2 20 5 23 23 10 46 0 80 -24 83 -14 2 -20 9 -18 21 2 9 -3
17 -10 18 -57 4 -202 3 -211 -3z m155 -102 c24 -11 1 -35 -27 -29 -46 10 -49
13 -30 27 20 14 28 14 57 2z m6 -149 c3 -12 -4 -17 -21 -17 -36 0 -56 10 -51
24 7 19 68 13 72 -7z"/>
<path d="M742 922 c-7 -2 -12 -12 -12 -22 0 -12 -8 -20 -22 -22 -15 -2 -23
-10 -23 -23 0 -11 -4 -26 -8 -32 -5 -7 -4 -13 0 -13 11 0 10 -130 0 -147 -5
-7 -4 -13 2 -13 5 0 8 -9 6 -20 -3 -15 3 -24 20 -32 13 -6 25 -20 27 -31 3
-21 -1 -21 183 -18 l44 1 -2 48 -2 47 -82 3 c-46 2 -84 6 -84 10 -7 41 -3 162
6 163 5 0 44 1 85 2 l75 2 2 48 c1 26 -1 47 -5 48 -36 3 -201 4 -210 1z"/>
<path d="M885 750 c17 -7 17 -9 3 -9 -11 -1 -18 -9 -18 -21 0 -15 6 -20 28
-19 16 1 20 3 10 6 -16 4 -16 6 -3 19 22 23 18 34 -12 33 -25 0 -26 -1 -8 -9z"/>
<path d="M935 730 c0 -23 5 -30 19 -30 13 0 16 3 9 13 -6 6 -9 20 -8 30 2 9
-2 17 -8 17 -7 0 -12 -13 -12 -30z"/>
<path d="M1120 1177 c0 -16 6 -23 20 -23 14 0 20 7 20 23 0 16 -6 23 -20 23
-14 0 -20 -7 -20 -23z"/>
<path d="M1160 1092 c0 -31 34 -26 38 5 3 17 -2 21 -17 20 -15 -1 -21 -8 -21
-25z"/>
<path d="M1292 648 c4 -31 38 -33 38 -2 0 18 -5 24 -21 24 -15 0 -20 -5 -17
-22z"/>
<path d="M179 288 c-7 -32 -5 -38 13 -38 13 0 18 6 16 17 -2 14 -26 32 -29 21z"/>
<path d="M140 189 c0 -14 5 -19 17 -17 24 4 26 38 2 38 -13 0 -19 -7 -19 -21z"/>
<path d="M50 161 c0 -22 23 -34 38 -19 15 15 3 38 -19 38 -12 0 -19 -7 -19
-19z"/>
<path d="M180 155 c0 -19 4 -23 18 -18 36 13 37 43 1 43 -14 0 -19 -7 -19 -25z"/>
</g>
</svg>
